<svg height="512" viewBox="0 0 512 512" width="512" xmlns="http://www.w3.org/2000/svg"><g id="Fill_out_line" data-name="Fill out line"><path d="m488 304a63.99511 63.99511 0 0 1 -64 64h-328a71.99672 71.99672 0 0 1 -19.26-141.37 128.01292 128.01292 0 1 1 251.23-37.22 55.79491 55.79491 0 0 1 15.84009-4.81 56.68868 56.68868 0 0 1 8.18991-.6 55.99742 55.99742 0 0 1 56 56h16a63.99508 63.99508 0 0 1 64 64z" fill="#92d4ef"/><path d="m80 400h64v48h-64z" fill="#ea4042"/><path d="m176 328h64v120h-64z" fill="#b28ec1"/><path d="m272 344h64v104h-64z" fill="#f4e2a0"/><path d="m368 296h64v152h-64z" fill="#a8c92a"/><path d="m152 376v-16h-56a63.99624 63.99624 0 0 1 -24.39722-123.16107 134.68069 134.68069 0 0 0 9.40161 21.058l13.99024-7.76367a119.98028 119.98028 0 1 1 222.89892-35.62451l15.71973 2.98242a136.95009 136.95009 0 0 0 2.35449-22.73877 48.04065 48.04065 0 0 1 43.45508 5.84668l9.1543-13.12305a64.02359 64.02359 0 0 0 -53.27173-9.26074c-6.93066-68.5411-64.96729-122.21529-135.30542-122.21529-74.99072 0-136 61.00928-136 136a136.41383 136.41383 0 0 0 3.213 29.37634 79.9896 79.9896 0 0 0 28.787 154.62366z"/><path d="m424 232h-16v16h16a56.00785 56.00785 0 0 1 27.99414 104.51318l8.01172 13.84961a72.00783 72.00783 0 0 0 -36.00586-134.36279z"/><path d="m440 296a7.99977 7.99977 0 0 0 -8-8h-64a7.99977 7.99977 0 0 0 -8 8v144h-16v-96a7.99977 7.99977 0 0 0 -8-8h-64a7.99977 7.99977 0 0 0 -8 8v96h-16v-112a7.99977 7.99977 0 0 0 -8-8h-64a7.99977 7.99977 0 0 0 -8 8v112h-16v-40a7.99977 7.99977 0 0 0 -8-8h-64a7.99977 7.99977 0 0 0 -8 8v40h-16v16h400v-16h-16zm-352 144v-32h48v32zm96 0v-104h48v104zm96 0v-88h48v88zm96 0v-136h48v136z"/><path d="m302.42041 302.26611-90.84277-45.42138a7.99942 7.99942 0 0 0 -8.69922 1.00976l-96 80 10.24316 12.291 91.98047-76.65039 91.32031 45.66015a7.99864 7.99864 0 0 0 9.23438-1.49853l130.34326-130.34324v28.68652h16v-48a7.99977 7.99977 0 0 0 -8-8h-48v16h28.68652z"/></g></svg>